<svg xmlns="http://www.w3.org/2000/svg" viewBox="0 0 323.16 93.91" enable-background="new 0 0 323.16 93.91"><g fill="#903b96"><path d="m143.68 15.31c9.2 0 17.07 3.26 23.59 9.79 6.52 6.53 9.79 14.39 9.79 23.59 0 9.2-3.26 17.07-9.79 23.59-6.53 6.53-14.39 9.79-23.59 9.79h-6.45c-3.31 0-6.14-1.18-8.51-3.55-2.37-2.36-3.55-5.2-3.55-8.51v-42.65c0-3.33 1.18-6.18 3.55-8.55 2.36-2.34 5.2-3.5 8.51-3.5h6.45m-8.04 54.71c0 .46.14.84.43 1.15.31.29.7.43 1.15.43h6.45c6.35 0 11.77-2.22 16.24-6.67 4.47-4.47 6.71-9.89 6.71-16.24s-2.24-11.77-6.71-16.24c-4.47-4.47-9.89-6.71-16.24-6.71h-6.45c-.46 0-.84.16-1.15.47-.29.31-.43.7-.43 1.15v42.66"/><path d="m229.59 47.2c.34.71.51 1.44.51 2.18 0 .6-.11 1.2-.34 1.8-.48 1.34-1.4 2.31-2.74 2.91-3.99 1.79-9.23 4.16-15.73 7.1-8.06 3.65-12.8 5.8-14.19 6.45 2.17 2.74 5.54 4.1 10.13 4.1 3.05 0 5.81-.9 8.29-2.69 2.42-1.77 4.12-4.05 5.09-6.84.83-2.34 2.48-3.5 4.96-3.5 1.77 0 3.18.74 4.23 2.22.66.91.98 1.87.98 2.86 0 .6-.11 1.21-.34 1.84-1.68 4.87-4.63 8.81-8.85 11.8-4.27 3.11-9.06 4.66-14.36 4.66-6.78 0-12.58-2.41-17.4-7.22-4.82-4.82-7.22-10.61-7.22-17.4 0-6.78 2.41-12.58 7.22-17.4 4.82-4.82 10.61-7.22 17.4-7.22 4.9 0 9.38 1.34 13.42 4.02 4.03 2.61 7 6.05 8.94 10.33m-22.35-3.81c-3.93 0-7.28 1.38-10.04 4.15-2.74 2.76-4.1 6.11-4.1 10.04v.3l23.89-10.73c-2.12-2.5-5.36-3.76-9.75-3.76"/><path d="m280.5 40.06c4.82 4.82 7.22 10.62 7.22 17.4v19.44c0 1.45-.51 2.66-1.54 3.63-1.03 1.03-2.24 1.54-3.63 1.54h-.13c-1.4 0-2.61-.51-3.63-1.54-1.03-.97-1.54-2.18-1.54-3.63-3.25 3.45-7.96 5.17-14.15 5.17-6.78 0-12.58-2.41-17.4-7.22-4.82-4.82-7.22-10.61-7.22-17.4 0-6.78 2.41-12.58 7.22-17.4 4.82-4.82 10.61-7.22 17.4-7.22 6.79.001 12.59 2.41 17.4 7.23m-27.44 7.39c-2.74 2.76-4.1 6.1-4.1 10 0 3.93 1.37 7.28 4.1 10.04 2.76 2.74 6.11 4.1 10.04 4.1 3.93 0 7.27-1.37 10-4.1 2.76-2.76 4.15-6.11 4.15-10.04 0-3.9-1.38-7.24-4.15-10-2.76-2.76-6.1-4.15-10-4.15-3.93.001-7.28 1.39-10.04 4.15"/><path d="m303.28 15.31c1.4 0 2.61.5 3.63 1.5 1.03 1.03 1.54 2.25 1.54 3.68v56.41c0 1.45-.51 2.66-1.54 3.63-1.03 1.03-2.24 1.54-3.63 1.54h-.13c-1.4 0-2.61-.51-3.63-1.54-1.03-.97-1.54-2.18-1.54-3.63v-56.42c0-1.42.51-2.65 1.54-3.68 1.03-1 2.24-1.5 3.63-1.5h.13z"/></g><g fill="#5266af"><path d="m54.8 10.76c2.62.68 3.93 2.35 3.93 5v.13c0 1.68-.68 3.05-2.05 4.1-.91.71-1.91 1.07-2.99 1.07-.46 0-.93-.06-1.41-.17-1.91-.48-3.83-.73-5.77-.73-6.33 0-11.73 2.24-16.2 6.71-4.47 4.47-6.71 9.89-6.71 16.24s2.24 11.77 6.71 16.24c4.47 4.45 9.87 6.67 16.2 6.67 1.94 0 3.86-.23 5.77-.68.48-.11.95-.17 1.41-.17 1.08 0 2.08.36 2.99 1.07 1.37 1.03 2.05 2.39 2.05 4.1v.09c0 2.68-1.31 4.36-3.93 5.04-2.71.68-5.47 1.03-8.29 1.03-9.2 0-17.07-3.26-23.59-9.79-6.53-6.52-9.79-14.39-9.79-23.59 0-9.2 3.26-17.07 9.79-23.59 6.52-6.53 14.38-9.79 23.59-9.79 2.82 0 5.58.34 8.29 1.02"/><path d="m88.91 37.82c-3.67 0-6.83 1.24-9.49 3.68v-12.4c2.92-1.22 6.08-1.83 9.49-1.83 4.75 0 9.01 1.21 12.8 3.57l-7.84 7.84c-1.54-.56-3.19-.86-4.96-.86" opacity=".3"/><path d="m71.51 34.49c2.11-2.11 4.42-3.73 6.9-4.91v12.93c-2.43 2.66-3.66 5.82-3.66 9.51 0 3.9 1.38 7.24 4.15 10 2.76 2.76 6.1 4.15 10 4.15 3.93 0 7.28-1.38 10.04-4.15 2.74-2.76 4.1-6.1 4.1-10 0-3.21-.93-6.02-2.75-8.46l7.47-7.47c3.83 4.48 5.76 9.75 5.76 15.79 0 6.78-2.41 12.58-7.22 17.4-4.82 4.82-10.61 7.22-17.4 7.22-6.78 0-12.58-2.41-17.4-7.22-4.82-4.82-7.22-10.61-7.22-17.4.001-6.78 2.42-12.58 7.23-17.39"/></g></svg>