<?xml version="1.0" encoding="utf-8"?>
<!-- Generator: Adobe Illustrator 25.0.0, SVG Export Plug-In . SVG Version: 6.00 Build 0)  -->
<svg version="1.1" id="Layer_1" xmlns="http://www.w3.org/2000/svg" xmlns:xlink="http://www.w3.org/1999/xlink" x="0px" y="0px"
	 viewBox="0 0 34 34" style="enable-background:new 0 0 34 34;" xml:space="preserve">
<style type="text/css">
	.st0{fill:none;stroke:#39B54A;stroke-width:0.2332;stroke-miterlimit:10;}
</style>
<g>
	<path id="Path_169" class="st0" d="M22.5,18.3c0.4,0.4,0.4,1,0,1.4s-1,0.4-1.4,0L18,16.4v5.4c0,0.5-0.4,1-1,1c-0.5,0-1-0.4-1-1
		v-5.4l-3.2,3.2c-0.4,0.4-1,0.4-1.4,0c-0.4-0.4-0.4-1,0-1.4l4.9-4.9c0.1-0.1,0.2-0.2,0.3-0.2c0.2-0.1,0.5-0.1,0.7,0
		c0.1,0,0.2,0.1,0.3,0.2L22.5,18.3z M32.5,20.9c0,3.2-2.6,5.8-5.8,5.8H6.3c-2.7,0-4.9-2.2-4.9-4.9S3.6,17,6.3,17c0.3,0,0.7,0,1,0.1
		V17c0-5.4,4.3-9.7,9.7-9.7c4.6,0,8.6,3.2,9.5,7.8c3.2-0.1,5.9,2.4,6.1,5.6C32.5,20.7,32.5,20.8,32.5,20.9z M30.6,20.9
		c0-2.1-1.7-3.9-3.8-3.9c-0.3,0-0.6,0-0.9,0.1c-0.5,0.1-1-0.2-1.2-0.7c0,0,0-0.1,0-0.1c-0.4-4.3-4.2-7.4-8.5-7c-4,0.4-7,3.7-7,7.7
		v1.5c0,0.5-0.4,1-1,1c-0.2,0-0.3,0-0.5-0.1c-0.4-0.3-0.9-0.4-1.5-0.4c-1.6,0-2.9,1.3-2.9,2.9c0,1.6,1.3,2.9,2.9,2.9h20.4
		C28.9,24.8,30.6,23,30.6,20.9z"/>
</g>
</svg>
