<?xml version="1.0" encoding="utf-8"?>
<!-- Generator: Adobe Illustrator 25.0.0, SVG Export Plug-In . SVG Version: 6.00 Build 0)  -->
<svg version="1.1" id="Layer_1" xmlns="http://www.w3.org/2000/svg" xmlns:xlink="http://www.w3.org/1999/xlink" x="0px" y="0px"
	 viewBox="0 0 34 34" style="enable-background:new 0 0 34 34;" xml:space="preserve">
<style type="text/css">
	.st0{fill:#39B54A;}
</style>
<path class="st0" d="M27.4,6.6c-6.9,0-10-3.6-10-3.6c-0.2-0.2-0.5-0.2-0.7,0c0,0-3.1,3.6-10,3.6c-0.3,0-0.5,0.2-0.5,0.5v9
	c0,4.9,2.2,9.6,5.9,12.6c1.5,1.2,3.1,2,4.8,2.5c0,0,0.1,0,0.1,0s0.1,0,0.1,0c1.7-0.5,3.3-1.4,4.8-2.5c3.7-2.9,5.9-7.6,5.9-12.6v-9
	C27.9,6.8,27.7,6.6,27.4,6.6z M26.9,16.1c0,4.6-2.1,9.1-5.6,11.8C20,29,18.5,29.8,17,30.2c-1.5-0.5-3-1.3-4.4-2.3
	c-3.5-2.7-5.6-7.2-5.6-11.8V7.5C12.9,7.4,16,4.9,17,4c1,1,4.1,3.4,9.9,3.6V16.1z"/>
</svg>
